<?xml version="1.0" encoding="utf-8"?>
<!-- Generator: Adobe Illustrator 22.0.1, SVG Export Plug-In . SVG Version: 6.00 Build 0)  -->
<svg version="1.1" id="图层_1" xmlns="http://www.w3.org/2000/svg" xmlns:xlink="http://www.w3.org/1999/xlink" x="0px" y="0px"
	 viewBox="0 0 64 64" style="enable-background:new 0 0 64 64;" xml:space="preserve">
<path class="st0" d="M57.6,33.6C61.9,8.6,43.8,0,32.2,0C19.9,0,2.5,8.6,6.8,33.6c-0.9,0.6-4,5.1,0.9,13.7c3.5,6.1,9.8,7.2,9.8,7.2
	s7.7,9.4,14.7,9.5c7-0.1,14.7-9.5,14.7-9.5s6.3-1.1,9.8-7.2C61.6,38.8,58.5,34.3,57.6,33.6z M30.2,54.2C8.7,54.3,7.1,43.3,8.7,38.8
	c1.5-4.5,11.3,0.7,11.3,0.7c9,5.1,10.4,12.4,10.6,14.2C30.6,54.2,30.2,54.2,30.2,54.2z M34.2,54.2c0,0-0.4,0.1-0.3-0.4
	c0.2-1.9,1.6-9.1,10.6-14.2c0,0,9.7-5.2,11.3-0.7C57.3,43.3,55.7,54.3,34.2,54.2z"/>
</svg>
